<?xml version="1.0" encoding="utf-8"?>
<!-- Generated by Mocodo 4.1.1 -->
<svg width="507" height="246" viewBox="0 0 507 246" xmlns="http://www.w3.org/2000/svg">
<rect x="0" y="0" width="507" height="246" fill="#f7f7f7" stroke="none" stroke-width="0"/>

<!-- Association CONCERNER -->
<g>
	<line x1="301" y1="60" x2="174" y2="60" stroke="#de77ae" stroke-width="2"/>
	<line x1="174" y1="178" x2="174" y2="60" stroke="#de77ae" stroke-width="2"/>
	<g>
		<path d="M206 35 a14 14 90 0 1 14 14 V60 h-92 V49 a14 14 90 0 1 14 -14" fill="#f1b6da" stroke="#f1b6da" stroke-width="0"/>
		<path d="M220 60 v11 a14 14 90 0 1 -14 14 H142 a14 14 90 0 1 -14 -14 V60 H92" fill="#fde0ef" stroke="#fde0ef" stroke-width="0"/>
		<rect x="128" y="35" width="92" height="50" fill="none" rx="14" stroke="#de77ae" stroke-width="2"/>
		<line x1="128" y1="60" x2="220" y2="60" stroke="#de77ae" stroke-width="1"/>
		<text x="136" y="52.75" fill="#000000" font-family="Verdana" font-size="12">CONCERNER</text>
	</g>
	<text x="226" y="77" fill="#4d9221" font-family="Verdana" font-size="12">1,1</text>
	<text x="179" y="111" fill="#4d9221" font-family="Verdana" font-size="12">0,N</text>
</g>

<!-- Association EFFECTUER -->
<g>
	<line x1="424" y1="178" x2="424" y2="60" stroke="#de77ae" stroke-width="2"/>
	<line x1="301" y1="60" x2="424" y2="60" stroke="#de77ae" stroke-width="2"/>
	<g>
		<path d="M452 35 a14 14 90 0 1 14 14 V60 h-84 V49 a14 14 90 0 1 14 -14" fill="#f1b6da" stroke="#f1b6da" stroke-width="0"/>
		<path d="M466 60 v11 a14 14 90 0 1 -14 14 H396 a14 14 90 0 1 -14 -14 V60 H84" fill="#fde0ef" stroke="#fde0ef" stroke-width="0"/>
		<rect x="382" y="35" width="84" height="50" fill="none" rx="14" stroke="#de77ae" stroke-width="2"/>
		<line x1="382" y1="60" x2="466" y2="60" stroke="#de77ae" stroke-width="1"/>
		<text x="389" y="52.75" fill="#000000" font-family="Verdana" font-size="12">EFFECTUER</text>
	</g>
	<text x="429" y="111" fill="#4d9221" font-family="Verdana" font-size="12">0,N</text>
	<text x="355" y="77" fill="#4d9221" font-family="Verdana" font-size="12">1,1</text>
</g>

<!-- Association OFFRIR -->
<g>
	<line x1="174" y1="178" x2="56" y2="178" stroke="#de77ae" stroke-width="2"/>
	<line x1="56" y1="60" x2="56" y2="178" stroke="#de77ae" stroke-width="2"/>
	<g>
		<path d="M89 136 a14 14 90 0 1 14 14 V161 h-94 V150 a14 14 90 0 1 14 -14" fill="#f1b6da" stroke="#f1b6da" stroke-width="0"/>
		<path d="M103 161 v45 a14 14 90 0 1 -14 14 H23 a14 14 90 0 1 -14 -14 V161 H94" fill="#fde0ef" stroke="#fde0ef" stroke-width="0"/>
		<rect x="9" y="136" width="94" height="84" fill="none" rx="14" stroke="#de77ae" stroke-width="2"/>
		<line x1="9" y1="161" x2="103" y2="161" stroke="#de77ae" stroke-width="1"/>
		<text x="33" y="153.75" fill="#000000" font-family="Verdana" font-size="12">OFFRIR</text>
		<text x="16" y="178.8" fill="#000000" font-family="Verdana" font-size="12">date</text>
		<text x="16" y="195.8" fill="#000000" font-family="Verdana" font-size="12">heure</text>
		<text x="16" y="212.8" fill="#000000" font-family="Verdana" font-size="12">commentaire</text>
	</g>
	<text x="108" y="195" fill="#4d9221" font-family="Verdana" font-size="12">0,N</text>
	<text x="61" y="128" fill="#4d9221" font-family="Verdana" font-size="12">0,N</text>
</g>

<!-- Entity SERVICE -->
<g>
	<g>
		<rect x="17" y="9" width="78" height="25" fill="#b8e186" stroke="none" stroke-width="0" opacity="1"/>
		<rect x="17" y="34" width="78" height="77" fill="#e6f5d0" stroke="none" stroke-width="0" opacity="1"/>
		<rect x="17" y="9" width="78" height="102" fill="none" stroke="#7fbc41" stroke-width="2" opacity="1"/>
		<line x1="17" y1="34" x2="95" y2="34" stroke="#7fbc41" stroke-width="1"/>
	</g>
	<text x="29" y="26.75" fill="#000000" font-family="Verdana" font-size="12">SERVICE</text>
	<text x="22" y="51.8" fill="#000000" font-family="Verdana" font-size="12">idService</text>
	<line x1="22" y1="54" x2="78" y2="54" stroke="#000000" stroke-width="1"/>
	<text x="22" y="68.8" fill="#000000" font-family="Verdana" font-size="12">nom</text>
	<text x="22" y="85.8" fill="#000000" font-family="Verdana" font-size="12">description</text>
	<text x="22" y="102.8" fill="#000000" font-family="Verdana" font-size="12">tarif</text>
</g>

<!-- Entity RESERVATION -->
<g>
	<g>
		<rect x="252" y="18" width="98" height="25" fill="#b8e186" stroke="none" stroke-width="0" opacity="1"/>
		<rect x="252" y="43" width="98" height="59" fill="#e6f5d0" stroke="none" stroke-width="0" opacity="1"/>
		<rect x="252" y="18" width="98" height="84" fill="none" stroke="#7fbc41" stroke-width="2" opacity="1"/>
		<line x1="252" y1="43" x2="350" y2="43" stroke="#7fbc41" stroke-width="1"/>
	</g>
	<text x="257" y="35.75" fill="#000000" font-family="Verdana" font-size="12">RESERVATION</text>
	<text x="257" y="60.8" fill="#000000" font-family="Verdana" font-size="12">idReservation</text>
	<line x1="257" y1="63" x2="340" y2="63" stroke="#000000" stroke-width="1"/>
	<text x="257" y="77.8" fill="#000000" font-family="Verdana" font-size="12">dateDebut</text>
	<text x="257" y="94.8" fill="#000000" font-family="Verdana" font-size="12">dateFin</text>
</g>

<!-- Entity CHAMBRE -->
<g>
	<g>
		<rect x="135" y="119" width="78" height="25" fill="#b8e186" stroke="none" stroke-width="0" opacity="1"/>
		<rect x="135" y="144" width="78" height="93" fill="#e6f5d0" stroke="none" stroke-width="0" opacity="1"/>
		<rect x="135" y="119" width="78" height="118" fill="none" stroke="#7fbc41" stroke-width="2" opacity="1"/>
		<line x1="135" y1="144" x2="213" y2="144" stroke="#7fbc41" stroke-width="1"/>
	</g>
	<text x="144" y="136.75" fill="#000000" font-family="Verdana" font-size="12">CHAMBRE</text>
	<text x="140" y="161.8" fill="#000000" font-family="Verdana" font-size="12">idChambre</text>
	<line x1="140" y1="164" x2="206" y2="164" stroke="#000000" stroke-width="1"/>
	<text x="140" y="178.8" fill="#000000" font-family="Verdana" font-size="12">numero</text>
	<text x="140" y="195.8" fill="#000000" font-family="Verdana" font-size="12">type</text>
	<text x="140" y="212.8" fill="#000000" font-family="Verdana" font-size="12">prixParNuit</text>
	<text x="140" y="229.8" fill="#000000" font-family="Verdana" font-size="12">disponible</text>
</g>

<!-- Entity CLIENT -->
<g>
	<g>
		<rect x="389" y="119" width="70" height="25" fill="#b8e186" stroke="none" stroke-width="0" opacity="1"/>
		<rect x="389" y="144" width="70" height="93" fill="#e6f5d0" stroke="none" stroke-width="0" opacity="1"/>
		<rect x="389" y="119" width="70" height="118" fill="none" stroke="#7fbc41" stroke-width="2" opacity="1"/>
		<line x1="389" y1="144" x2="459" y2="144" stroke="#7fbc41" stroke-width="1"/>
	</g>
	<text x="402" y="136.75" fill="#000000" font-family="Verdana" font-size="12">CLIENT</text>
	<text x="394" y="161.8" fill="#000000" font-family="Verdana" font-size="12">idClient</text>
	<line x1="394" y1="164" x2="440" y2="164" stroke="#000000" stroke-width="1"/>
	<text x="394" y="178.8" fill="#000000" font-family="Verdana" font-size="12">nom</text>
	<text x="394" y="195.8" fill="#000000" font-family="Verdana" font-size="12">prenom</text>
	<text x="394" y="212.8" fill="#000000" font-family="Verdana" font-size="12">email</text>
	<text x="394" y="229.8" fill="#000000" font-family="Verdana" font-size="12">telephone</text>
</g>
</svg>